<svg width="1000" height="1000" viewBox="0 0 1000 1000" fill="none" xmlns="http://www.w3.org/2000/svg">
<circle cx="500" cy="500" r="500" fill="#6F777C"/>
<path d="M335.573 509.04C336.708 496.068 336.922 487.344 336.216 482.868C335.52 478.262 333.671 476.39 330.667 477.251C328.789 477.789 327.043 478.922 325.428 480.65C325.474 482.913 325.577 485.919 325.737 489.667C325.897 493.414 325.421 501.644 324.309 514.356L323.203 527.003C322.431 535.824 321.681 542.298 320.954 546.427C320.227 550.556 319.613 554.083 319.113 557.008C318.852 558.601 318.59 560.193 318.329 561.786C319.718 562.652 321.351 562.816 323.228 562.278C326.232 561.416 328.507 558.425 330.053 553.302C331.611 548.05 332.957 538.938 334.092 525.967L335.573 509.04ZM315.773 651.672C293.494 658.06 273.444 659.194 255.623 655.073C237.938 650.786 224.258 640.482 214.581 624.161C204.916 607.711 201.372 584.763 203.948 555.318C207.682 512.643 222.989 475.754 249.871 444.65C273.75 417.191 303.025 398.49 337.695 388.548C375.37 377.745 404.098 381.332 423.879 399.307C443.797 417.117 452.032 445.738 448.582 485.171C444.746 529.014 430.053 565.853 404.502 595.69C381.271 622.711 351.695 641.372 315.773 651.672ZM576.363 495.383C577.614 495.024 578.769 494.377 579.827 493.441L581.376 475.736C590.41 467.328 602.726 459.054 618.325 450.914C634.049 442.738 649.171 436.568 663.69 432.405C669.711 437.507 674.299 446.435 677.454 459.188C680.746 471.775 682.023 483.675 681.286 494.888C678.329 500.795 673.585 507.593 667.055 515.282C660.65 522.936 653.034 530.494 644.205 537.958C622.316 556.627 597.916 569.82 571.006 577.537C532.455 588.591 503.118 585.685 482.996 568.819C462.145 551.909 453.535 522.7 457.166 481.192C460.809 439.554 476.185 403.277 503.295 372.362C515.24 358.567 528.767 346.911 543.877 337.394C558.998 327.746 574.631 320.608 590.777 315.978C622.319 306.934 647.473 307.435 666.24 317.481C685.007 327.528 693.375 344.161 691.343 367.379C689.811 384.891 683.482 399.351 672.356 410.762C661.241 422.042 646.797 430.231 629.023 435.327C619.261 438.126 609.651 438.479 600.194 436.385C590.749 434.162 585.28 431.114 583.789 427.242C584.719 416.606 585.639 408.186 586.548 401.982C586.309 401.924 585.876 401.984 585.251 402.164L583.936 402.541C582.059 403.079 580.506 404.093 579.277 405.584C578.185 406.909 577.048 409.448 575.865 413.201C574.808 416.919 573.598 426.56 572.236 442.126C568.979 479.354 570.355 497.106 576.363 495.383ZM707.918 441.537C719.522 427.461 732.708 418.305 747.477 414.07C762.247 409.835 774.594 411.669 784.518 419.572C794.17 427.806 798.321 439.641 796.97 455.077C795.631 470.383 789.16 485.075 777.556 499.151C765.839 513.133 752.533 522.26 737.638 526.531C722.744 530.802 710.454 529.015 700.768 521.17C691.219 513.159 687.114 501.5 688.453 486.194C689.803 470.758 696.292 455.873 707.918 441.537Z" fill="white"/>
</svg>
