<svg width="200" height="200" viewBox="0 0 200 200" fill="none" xmlns="http://www.w3.org/2000/svg">
<circle cx="100" cy="100" r="99.5" fill="#FFE8F1" stroke="black"/>
<mask id="path-2-outside-1_395_14" maskUnits="userSpaceOnUse" x="25" y="102" width="67" height="61" fill="black">
<rect fill="white" x="25" y="102" width="67" height="61"/>
<path d="M58.512 161.432C46.448 161.432 38.048 158.792 33.312 153.512C28.608 148.232 26.256 141.144 26.256 132.248C26.256 123.32 28.608 116.28 33.312 111.128C38.048 105.976 46.448 103.4 58.512 103.4C70.608 103.4 79.008 105.976 83.712 111.128C88.416 116.28 90.768 123.32 90.768 132.248C90.768 141.144 88.416 148.232 83.712 153.512C79.008 158.792 70.608 161.432 58.512 161.432ZM58.512 146.888C61.648 146.888 64.192 146.04 66.144 144.344C68.128 142.616 69.12 138.616 69.12 132.344C69.12 126.072 68.128 122.104 66.144 120.44C64.192 118.776 61.648 117.944 58.512 117.944C55.408 117.944 52.864 118.776 50.88 120.44C48.896 122.104 47.904 126.072 47.904 132.344C47.904 138.616 48.896 142.616 50.88 144.344C52.864 146.04 55.408 146.888 58.512 146.888Z"/>
</mask>
<path d="M58.512 161.432C46.448 161.432 38.048 158.792 33.312 153.512C28.608 148.232 26.256 141.144 26.256 132.248C26.256 123.32 28.608 116.28 33.312 111.128C38.048 105.976 46.448 103.4 58.512 103.4C70.608 103.4 79.008 105.976 83.712 111.128C88.416 116.28 90.768 123.32 90.768 132.248C90.768 141.144 88.416 148.232 83.712 153.512C79.008 158.792 70.608 161.432 58.512 161.432ZM58.512 146.888C61.648 146.888 64.192 146.04 66.144 144.344C68.128 142.616 69.12 138.616 69.12 132.344C69.12 126.072 68.128 122.104 66.144 120.44C64.192 118.776 61.648 117.944 58.512 117.944C55.408 117.944 52.864 118.776 50.88 120.44C48.896 122.104 47.904 126.072 47.904 132.344C47.904 138.616 48.896 142.616 50.88 144.344C52.864 146.04 55.408 146.888 58.512 146.888Z" fill="#FE618B"/>
<path d="M33.312 153.512L32.5653 154.177L32.5676 154.18L33.312 153.512ZM33.312 111.128L32.5758 110.451L32.5735 110.454L33.312 111.128ZM83.712 111.128L84.4505 110.454L83.712 111.128ZM83.712 153.512L84.4587 154.177L83.712 153.512ZM66.144 144.344L66.7999 145.099L66.8008 145.098L66.144 144.344ZM66.144 120.44L65.4952 121.201L65.5014 121.206L66.144 120.44ZM50.88 120.44L50.2374 119.674L50.88 120.44ZM50.88 144.344L50.2232 145.098L50.2302 145.104L50.88 144.344ZM58.512 160.432C46.5423 160.432 38.5051 157.804 34.0564 152.844L32.5676 154.18C37.5909 159.78 46.3537 162.432 58.512 162.432V160.432ZM34.0587 152.847C29.5567 147.794 27.256 140.964 27.256 132.248H25.256C25.256 141.324 27.6593 148.67 32.5653 154.177L34.0587 152.847ZM27.256 132.248C27.256 123.497 29.5578 116.723 34.0505 111.802L32.5735 110.454C27.6582 115.837 25.256 123.143 25.256 132.248H27.256ZM34.0482 111.805C38.4957 106.967 46.5367 104.4 58.512 104.4V102.4C46.3593 102.4 37.6003 104.985 32.5758 110.451L34.0482 111.805ZM58.512 104.4C70.5213 104.4 78.5591 106.967 82.9735 111.802L84.4505 110.454C79.4569 104.985 70.6947 102.4 58.512 102.4V104.4ZM82.9735 111.802C87.4663 116.723 89.768 123.497 89.768 132.248H91.768C91.768 123.143 89.3658 115.837 84.4505 110.454L82.9735 111.802ZM89.768 132.248C89.768 140.964 87.4673 147.794 82.9653 152.847L84.4587 154.177C89.3647 148.67 91.768 141.324 91.768 132.248H89.768ZM82.9653 152.847C78.5497 157.803 70.5156 160.432 58.512 160.432V162.432C70.7004 162.432 79.4663 159.781 84.4587 154.177L82.9653 152.847ZM58.512 147.888C61.8354 147.888 64.6292 146.985 66.7999 145.099L65.4881 143.589C63.7548 145.095 61.4606 145.888 58.512 145.888V147.888ZM66.8008 145.098C68.0128 144.042 68.8271 142.383 69.3466 140.289C69.8695 138.18 70.12 135.524 70.12 132.344H68.12C68.12 135.436 67.8745 137.916 67.4054 139.807C66.9329 141.713 66.2592 142.918 65.4872 143.59L66.8008 145.098ZM70.12 132.344C70.12 129.165 69.8695 126.515 69.3461 124.421C68.8265 122.343 68.0097 120.7 66.7866 119.674L65.5014 121.206C66.2623 121.844 66.9335 123.017 67.4059 124.907C67.8745 126.781 68.12 129.251 68.12 132.344H70.12ZM66.7927 119.679C64.6219 117.828 61.8308 116.944 58.512 116.944V118.944C61.4652 118.944 63.7621 119.724 65.4953 121.201L66.7927 119.679ZM58.512 116.944C55.2217 116.944 52.4356 117.83 50.2374 119.674L51.5226 121.206C53.2924 119.722 55.5943 118.944 58.512 118.944V116.944ZM50.2374 119.674C49.0143 120.7 48.1975 122.343 47.6779 124.421C47.1545 126.515 46.904 129.165 46.904 132.344H48.904C48.904 129.251 49.1495 126.781 49.6181 124.907C50.0905 123.017 50.7617 121.844 51.5226 121.206L50.2374 119.674ZM46.904 132.344C46.904 135.524 47.1545 138.18 47.6774 140.289C48.1969 142.383 49.0112 144.042 50.2232 145.098L51.5368 143.59C50.7648 142.918 50.0911 141.713 49.6186 139.807C49.1495 137.916 48.904 135.436 48.904 132.344H46.904ZM50.2302 145.104C52.4283 146.983 55.217 147.888 58.512 147.888V145.888C55.599 145.888 53.2997 145.097 51.5298 143.584L50.2302 145.104Z" fill="black" mask="url(#path-2-outside-1_395_14)"/>
<mask id="path-4-outside-2_395_14" maskUnits="userSpaceOnUse" x="63" y="63" width="66" height="68" fill="black">
<rect fill="white" x="63" y="63" width="66" height="68"/>
<path d="M95.792 129.528C85.424 129.528 77.6 127.848 72.32 124.488C67.04 121.096 64.4 115.896 64.4 108.888V99.96H86.288V106.392C86.288 109.144 86.912 111.256 88.16 112.728C89.44 114.2 91.968 114.936 95.744 114.936C99.488 114.936 102.032 114.28 103.376 112.968C104.72 111.624 105.392 109.624 105.392 106.968V64.2H127.232V110.136C127.232 116.44 124.608 121.256 119.36 124.584C114.144 127.88 106.288 129.528 95.792 129.528Z"/>
</mask>
<path d="M95.792 129.528C85.424 129.528 77.6 127.848 72.32 124.488C67.04 121.096 64.4 115.896 64.4 108.888V99.96H86.288V106.392C86.288 109.144 86.912 111.256 88.16 112.728C89.44 114.2 91.968 114.936 95.744 114.936C99.488 114.936 102.032 114.28 103.376 112.968C104.72 111.624 105.392 109.624 105.392 106.968V64.2H127.232V110.136C127.232 116.44 124.608 121.256 119.36 124.584C114.144 127.88 106.288 129.528 95.792 129.528Z" fill="#8A0010"/>
<path d="M72.32 124.488L71.7795 125.329L71.7831 125.332L72.32 124.488ZM64.4 99.96V98.96H63.4V99.96H64.4ZM86.288 99.96H87.288V98.96H86.288V99.96ZM88.16 112.728L87.3972 113.375L87.4054 113.384L88.16 112.728ZM103.376 112.968L104.075 113.684L104.083 113.675L103.376 112.968ZM105.392 64.2V63.2H104.392V64.2H105.392ZM127.232 64.2H128.232V63.2H127.232V64.2ZM119.36 124.584L119.894 125.429L119.896 125.429L119.36 124.584ZM95.792 128.528C85.5022 128.528 77.9027 126.855 72.8569 123.644L71.7831 125.332C77.2973 128.841 85.3458 130.528 95.792 130.528V128.528ZM72.8605 123.647C67.9043 120.463 65.4 115.603 65.4 108.888H63.4C63.4 116.189 66.1757 121.729 71.7795 125.329L72.8605 123.647ZM65.4 108.888V99.96H63.4V108.888H65.4ZM64.4 100.96H86.288V98.96H64.4V100.96ZM85.288 99.96V106.392H87.288V99.96H85.288ZM85.288 106.392C85.288 109.282 85.9422 111.658 87.3972 113.375L88.9228 112.081C87.8818 110.854 87.288 109.006 87.288 106.392H85.288ZM87.4054 113.384C88.9916 115.208 91.9225 115.936 95.744 115.936V113.936C92.0135 113.936 89.8884 113.192 88.9146 112.072L87.4054 113.384ZM95.744 115.936C99.5244 115.936 102.429 115.29 104.075 113.684L102.677 112.252C101.635 113.27 99.4516 113.936 95.744 113.936V115.936ZM104.083 113.675C105.679 112.079 106.392 109.782 106.392 106.968H104.392C104.392 109.466 103.761 111.169 102.669 112.261L104.083 113.675ZM106.392 106.968V64.2H104.392V106.968H106.392ZM105.392 65.2H127.232V63.2H105.392V65.2ZM126.232 64.2V110.136H128.232V64.2H126.232ZM126.232 110.136C126.232 116.104 123.778 120.598 118.824 123.739L119.896 125.429C125.438 121.914 128.232 116.776 128.232 110.136H126.232ZM118.826 123.739C113.846 126.885 106.216 128.528 95.792 128.528V130.528C106.36 130.528 114.442 128.875 119.894 125.429L118.826 123.739Z" fill="black" mask="url(#path-4-outside-2_395_14)"/>
<mask id="path-6-outside-3_395_14" maskUnits="userSpaceOnUse" x="120" y="42" width="64" height="61" fill="black">
<rect fill="white" x="120" y="42" width="64" height="61"/>
<path d="M153.552 101.576C141.328 101.576 132.976 99.048 128.496 93.992C124.016 88.936 121.776 81.832 121.776 72.68C121.776 63.592 124.016 56.472 128.496 51.32C132.976 46.136 141.328 43.544 153.552 43.544C164.208 43.544 171.504 45.592 175.44 49.688C179.376 53.784 181.744 57.896 182.544 62.024L163.344 68.84C163.024 64.808 161.984 62.056 160.224 60.584C158.496 59.112 156.272 58.376 153.552 58.376C150.928 58.376 148.656 59.224 146.736 60.92C144.816 62.584 143.856 66.504 143.856 72.68C143.856 78.792 144.816 82.68 146.736 84.344C148.688 86.008 150.96 86.84 153.552 86.84C156.24 86.84 158.464 86.104 160.224 84.632C161.984 83.16 163.024 80.488 163.344 76.616L182.544 83.72C181.744 87.688 179.376 91.656 175.44 95.624C171.504 99.592 164.208 101.576 153.552 101.576Z"/>
</mask>
<path d="M153.552 101.576C141.328 101.576 132.976 99.048 128.496 93.992C124.016 88.936 121.776 81.832 121.776 72.68C121.776 63.592 124.016 56.472 128.496 51.32C132.976 46.136 141.328 43.544 153.552 43.544C164.208 43.544 171.504 45.592 175.44 49.688C179.376 53.784 181.744 57.896 182.544 62.024L163.344 68.84C163.024 64.808 161.984 62.056 160.224 60.584C158.496 59.112 156.272 58.376 153.552 58.376C150.928 58.376 148.656 59.224 146.736 60.92C144.816 62.584 143.856 66.504 143.856 72.68C143.856 78.792 144.816 82.68 146.736 84.344C148.688 86.008 150.96 86.84 153.552 86.84C156.24 86.84 158.464 86.104 160.224 84.632C161.984 83.16 163.024 80.488 163.344 76.616L182.544 83.72C181.744 87.688 179.376 91.656 175.44 95.624C171.504 99.592 164.208 101.576 153.552 101.576Z" fill="#F81341"/>
<path d="M128.496 93.992L129.244 93.3288L128.496 93.992ZM128.496 51.32L129.251 51.9762L129.253 51.9739L128.496 51.32ZM175.44 49.688L174.719 50.3809L175.44 49.688ZM182.544 62.024L182.879 62.9664L183.689 62.6785L183.526 61.8337L182.544 62.024ZM163.344 68.84L162.347 68.9191L162.45 70.2184L163.679 69.7824L163.344 68.84ZM160.224 60.584L159.576 61.3453L159.582 61.3511L160.224 60.584ZM146.736 60.92L147.391 61.6757L147.398 61.6695L146.736 60.92ZM146.736 84.344L146.081 85.0997L146.087 85.105L146.736 84.344ZM163.344 76.616L163.691 75.6781L162.456 75.2211L162.347 76.5336L163.344 76.616ZM182.544 83.72L183.524 83.9176L183.693 83.079L182.891 82.7821L182.544 83.72ZM175.44 95.624L176.15 96.3282L175.44 95.624ZM153.552 100.576C141.399 100.576 133.428 98.0501 129.244 93.3288L127.748 94.6552C132.524 100.046 141.257 102.576 153.552 102.576V100.576ZM129.244 93.3288C124.976 88.512 122.776 81.6751 122.776 72.68H120.776C120.776 81.9889 123.056 89.36 127.748 94.6552L129.244 93.3288ZM122.776 72.68C122.776 63.7523 124.975 56.8933 129.251 51.9762L127.741 50.6638C123.057 56.0507 120.776 63.4317 120.776 72.68H122.776ZM129.253 51.9739C133.437 47.1315 141.405 44.544 153.552 44.544V42.544C141.251 42.544 132.515 45.1404 127.739 50.6661L129.253 51.9739ZM153.552 44.544C164.151 44.544 171.081 46.5951 174.719 50.3809L176.161 48.9951C171.927 44.5889 164.265 42.544 153.552 42.544V44.544ZM174.719 50.3809C178.567 54.3854 180.81 58.331 181.562 62.2143L183.526 61.8337C182.678 57.461 180.185 53.1826 176.161 48.9951L174.719 50.3809ZM182.209 61.0816L163.009 67.8976L163.679 69.7824L182.879 62.9664L182.209 61.0816ZM164.341 68.7609C164.015 64.65 162.942 61.5534 160.866 59.8169L159.582 61.3511C161.026 62.5586 162.033 64.966 162.347 68.9191L164.341 68.7609ZM160.872 59.8228C158.929 58.1674 156.46 57.376 153.552 57.376V59.376C156.084 59.376 158.063 60.0566 159.576 61.3452L160.872 59.8228ZM153.552 57.376C150.691 57.376 148.182 58.3088 146.074 60.1705L147.398 61.6695C149.13 60.1392 151.165 59.376 153.552 59.376V57.376ZM146.081 60.1643C144.897 61.1906 144.107 62.8182 143.605 64.8701C143.098 66.9375 142.856 69.5494 142.856 72.68H144.856C144.856 69.6346 145.094 67.1985 145.547 65.3459C146.005 63.4778 146.655 62.3134 147.391 61.6757L146.081 60.1643ZM142.856 72.68C142.856 75.7792 143.098 78.3677 143.605 80.4197C144.108 82.4573 144.899 84.0748 146.081 85.0997L147.391 83.5883C146.653 82.9492 146.004 81.7907 145.547 79.9403C145.094 78.1043 144.856 75.6928 144.856 72.68H142.856ZM146.087 85.105C148.222 86.925 150.725 87.84 153.552 87.84V85.84C151.195 85.84 149.154 85.091 147.385 83.583L146.087 85.105ZM153.552 87.84C156.432 87.84 158.896 87.0466 160.866 85.3991L159.582 83.8649C158.032 85.1614 156.048 85.84 153.552 85.84V87.84ZM160.866 85.3991C162.934 83.669 164.013 80.663 164.341 76.6984L162.347 76.5336C162.035 80.313 161.034 82.651 159.582 83.8649L160.866 85.3991ZM162.997 77.5539L182.197 84.6579L182.891 82.7821L163.691 75.6781L162.997 77.5539ZM181.564 83.5224C180.814 87.2386 178.579 91.0395 174.73 94.9198L176.15 96.3282C180.173 92.2725 182.674 88.1374 183.524 83.9176L181.564 83.5224ZM174.73 94.9198C171.093 98.5869 164.156 100.576 153.552 100.576V102.576C164.26 102.576 171.915 100.597 176.15 96.3282L174.73 94.9198Z" fill="black" mask="url(#path-6-outside-3_395_14)"/>
</svg>
