<svg width="1440" height="1440" viewBox="0 0 1440 1440" fill="none" xmlns="http://www.w3.org/2000/svg">
<circle cx="720" cy="720" r="720" fill="#6F777C"/>
<path d="M425.756 967.138C408.671 972.037 391.956 974.981 375.61 975.969C359.245 977.168 343.971 976.103 329.787 972.772C315.603 969.441 302.713 963.787 291.117 955.81C279.725 947.775 270.144 937.165 262.374 923.98C254.604 910.796 249.062 894.815 245.748 876.038C242.434 857.261 241.864 835.436 244.04 810.564C247.268 773.677 255.544 740.274 268.869 710.355C282.213 680.225 298.802 653.788 318.638 631.044C338.493 608.09 360.687 588.985 385.222 573.73C409.959 558.417 435.346 547.027 461.38 539.562C492.295 530.697 519.597 528.006 543.286 531.488C566.992 534.76 586.568 543.326 602.011 557.186C617.455 571.047 628.601 589.839 635.448 613.563C642.296 637.286 644.336 664.957 641.57 696.574C638.287 734.094 630.28 767.831 617.546 797.785C605.016 827.682 589.036 853.943 569.607 876.571C550.4 898.929 528.437 917.659 503.717 932.762C479.201 947.806 453.214 959.265 425.756 967.138ZM457.932 735.361C458.817 725.243 459.369 716.659 459.59 709.609C459.828 702.348 459.651 696.44 459.058 691.883C458.429 687.749 457.263 685.206 455.562 684.255C454.064 683.246 452.196 683.063 449.959 683.704C447.721 684.346 445.956 685.263 444.661 686.456C443.386 687.438 442.314 688.362 441.445 689.228C441.316 692.964 441.308 696.46 441.419 699.716C441.55 702.761 441.532 706.362 441.367 710.519C441.423 714.407 441.313 719.063 441.037 724.485C440.779 729.696 440.309 736.201 439.627 744L437.829 764.551C437.147 772.35 436.464 779.019 435.781 784.558C435.117 789.886 434.397 794.716 433.621 799.048C433.067 803.111 432.44 806.888 431.738 810.377C431.054 813.655 430.445 817.221 429.91 821.073C430.668 821.472 431.62 821.918 432.767 822.411C433.932 822.694 435.633 822.514 437.87 821.873C440.108 821.231 442.105 819.939 443.861 817.997C445.82 815.997 447.502 812.638 448.907 807.92C450.348 802.78 451.585 796.569 452.619 789.285C453.671 781.791 454.64 772.985 455.525 762.868L457.932 735.361ZM840.509 846.669C809.593 855.534 782.042 858.81 757.855 856.498C733.686 853.976 713.454 846.112 697.16 832.906C681.088 819.431 669.341 800.709 661.92 776.739C654.722 752.499 652.625 723.201 655.631 688.843C658.729 653.432 666.913 621.083 680.183 591.796C693.675 562.24 710.338 536.091 730.174 513.347C750.214 490.544 772.51 471.41 797.063 455.945C821.819 440.421 847.011 428.984 872.638 421.636C898.469 414.229 921.86 410.912 942.811 411.686C963.762 412.46 981.339 416.667 995.542 424.307C1009.95 431.89 1020.71 442.571 1027.84 456.352C1034.96 470.133 1037.7 486.403 1036.06 505.163C1034.75 520.128 1031.29 533.551 1025.69 545.432C1020.09 557.313 1012.83 567.821 1003.9 576.957C995.192 585.824 984.904 593.501 973.034 599.987C961.164 606.473 948.415 611.67 934.788 615.578C926.246 618.027 917.804 619.317 909.465 619.448C901.347 619.31 893.886 618.47 887.08 616.928C880.275 615.386 874.505 613.341 869.771 610.794C865.258 607.979 862.428 605.194 861.281 602.44C861.761 596.96 862.314 590.636 862.941 583.47C863.771 576.245 864.713 568.885 865.765 561.391C865.173 561.355 864.369 561.483 863.352 561.775C862.538 562.008 861.928 562.183 861.521 562.3C858.471 563.175 855.947 564.823 853.95 567.245C852.176 569.398 850.577 572.939 849.154 577.868C847.75 582.586 846.503 588.902 845.414 596.818C844.529 604.675 843.56 614.611 842.509 626.626C841.089 642.856 840.177 656.681 839.773 668.099C839.591 679.248 839.787 688.336 840.362 695.363C840.955 702.18 842.02 707.012 843.555 709.86C845.091 712.708 846.977 713.811 849.214 713.169C851.248 712.586 853.125 711.534 854.844 710.014L857.361 681.242C864.923 674.142 874.065 667.102 884.789 660.123C895.512 653.143 906.79 646.621 918.623 640.557C930.678 634.223 942.974 628.54 955.51 623.507C968.064 618.263 979.934 614.037 991.121 610.829C996.096 615.157 1000.42 621.211 1004.11 628.991C1007.99 636.713 1011.1 645.378 1013.43 654.984C1015.99 664.321 1017.81 674.072 1018.9 684.239C1020.02 694.195 1020.29 703.57 1019.71 712.365C1015.17 721.272 1007.78 732.02 997.56 744.61C987.356 756.989 974.646 769.675 959.431 782.669C944.234 795.452 926.614 807.594 906.572 819.095C886.53 830.595 864.509 839.787 840.509 846.669ZM1031.36 698.237C1032.47 685.59 1035.85 673.01 1041.5 660.497C1047.16 647.984 1054.31 636.48 1062.96 625.985C1071.63 615.279 1081.47 605.986 1092.47 598.105C1103.47 590.224 1114.97 584.563 1126.97 581.122C1139.17 577.623 1150.45 576.752 1160.81 578.509C1171.16 580.266 1179.94 584.223 1187.13 590.38C1194.55 596.267 1200.11 604.126 1203.81 613.956C1207.51 623.786 1208.81 635.025 1207.7 647.672C1206.61 660.108 1203.24 672.583 1197.59 685.096C1191.95 697.398 1184.7 708.826 1175.85 719.379C1167.2 729.874 1157.27 739.091 1146.07 747.03C1134.88 754.759 1123.19 760.372 1110.98 763.872C1098.98 767.313 1087.9 768.231 1077.73 766.626C1067.57 764.811 1058.89 760.93 1051.68 754.984C1044.46 749.038 1039 741.256 1035.28 731.636C1031.58 721.806 1030.27 710.673 1031.36 698.237Z" fill="white"/>
</svg>
