<svg width="1008" height="1000" viewBox="0 0 1008 1000" fill="none" xmlns="http://www.w3.org/2000/svg">
<circle cx="500" cy="500" r="500" fill="#6F777C"/>
<path d="M271.497 514.986C273.199 495.529 273.52 482.444 272.46 475.729C271.418 468.82 268.643 466.011 264.137 467.303C261.321 468.111 258.701 469.811 256.278 472.402C256.347 475.797 256.502 480.305 256.742 485.927C256.983 491.548 256.269 503.893 254.6 522.961L252.941 541.932C251.783 555.162 250.659 564.874 249.568 571.067C248.477 577.26 247.557 582.551 246.807 586.939C246.415 589.328 246.023 591.717 245.631 594.105C247.713 595.405 250.163 595.651 252.979 594.844C257.485 593.551 260.898 589.064 263.217 581.38C265.554 573.502 267.573 559.834 269.275 540.377L271.497 514.986ZM241.797 728.935C208.378 738.518 178.303 740.218 151.571 734.036C125.044 727.605 104.524 712.15 90.009 687.669C75.5115 662.993 70.1949 628.572 74.059 584.405C79.6594 520.391 102.621 465.057 142.944 418.402C178.762 377.213 222.674 349.162 274.68 334.249C331.192 318.045 374.284 323.424 403.956 350.387C433.833 377.102 446.184 420.034 441.009 479.183C435.256 544.948 413.216 600.207 374.889 644.961C340.044 685.493 295.68 713.484 241.797 728.935ZM632.681 494.502C634.559 493.963 636.291 492.992 637.878 491.589L640.202 465.03C653.751 452.419 672.226 440.008 695.624 427.798C719.211 415.534 741.893 406.279 763.672 400.034C772.703 407.688 779.585 421.079 784.318 440.208C789.255 459.089 791.171 476.939 790.066 493.759C785.63 502.619 778.515 512.816 768.72 524.35C759.113 535.83 747.688 547.168 734.445 558.363C701.611 586.368 665.011 606.157 624.645 617.732C566.819 634.313 522.815 629.955 492.63 604.655C461.354 579.29 448.439 535.477 453.887 473.214C459.351 410.758 482.415 356.343 523.08 309.969C540.997 289.277 561.288 271.793 583.952 257.517C606.634 243.046 630.084 232.339 654.303 225.394C701.615 211.827 739.346 212.579 767.497 227.649C795.647 242.719 808.199 267.668 805.152 302.496C802.854 328.763 793.36 350.454 776.671 367.569C759.998 384.49 738.332 396.773 711.672 404.417C697.028 408.616 682.613 409.146 668.428 406.005C654.26 402.67 646.057 398.098 643.82 392.29C645.216 376.336 646.595 363.705 647.959 354.399C647.6 354.312 646.952 354.403 646.013 354.672L644.041 355.238C641.225 356.045 638.896 357.567 637.053 359.803C635.415 361.79 633.709 365.598 631.935 371.229C630.349 376.805 628.534 391.267 626.492 414.616C621.606 470.457 623.669 497.086 632.681 494.502ZM830.014 413.732C847.419 392.618 867.199 378.884 889.353 372.532C911.507 366.179 930.028 368.93 944.915 380.785C959.392 393.136 965.618 410.889 963.592 434.043C961.584 457.002 951.877 479.039 934.471 500.153C916.895 521.127 896.936 534.817 874.594 541.223C852.253 547.63 833.817 544.949 819.289 533.181C804.965 521.165 798.808 503.677 800.816 480.718C802.842 457.564 812.574 435.236 830.014 413.732Z" fill="white"/>
</svg>
